<?xml version="1.0" standalone="no"?>
<!DOCTYPE svg PUBLIC "-//W3C//DTD SVG 20010904//EN"
 "http://www.w3.org/TR/2001/REC-SVG-20010904/DTD/svg10.dtd">
<svg version="1.0" xmlns="http://www.w3.org/2000/svg"
 width="512.000000pt" height="512.000000pt" viewBox="0 0 512.000000 512.000000"
 preserveAspectRatio="xMidYMid meet">
<metadata>
Created by potrace 1.11, written by Peter Selinger 2001-2013
</metadata>
<g transform="translate(0.000000,512.000000) scale(0.100000,-0.100000)"
fill="#000000" stroke="none">
<path d="M2276 5103 c-2 -2 -28 -6 -57 -8 -30 -3 -70 -6 -89 -9 -19 -3 -57 -7
-85 -11 -27 -3 -58 -9 -67 -11 -10 -3 -28 -7 -40 -10 -13 -2 -33 -6 -45 -9
-13 -3 -31 -7 -41 -9 -79 -18 -302 -111 -302 -127 0 -4 -9 -10 -19 -14 -23 -7
-108 -88 -144 -136 -14 -20 -35 -63 -45 -95 -18 -54 -20 -87 -18 -379 l1 -320
612 0 c336 0 615 -3 618 -7 4 -4 7 -42 8 -85 l0 -78 -134 -2 c-74 -2 -496 -4
-939 -6 -443 -1 -816 -6 -829 -10 -198 -56 -329 -145 -434 -294 -30 -43 -99
-167 -102 -183 0 -3 -10 -30 -22 -61 -21 -54 -47 -146 -57 -199 -2 -14 -7 -36
-10 -50 -36 -158 -42 -595 -10 -785 2 -16 6 -46 9 -65 2 -19 4 -35 5 -35 1 0
4 -13 6 -30 22 -140 116 -380 189 -480 102 -140 235 -233 387 -272 13 -3 139
-7 280 -8 l257 -2 -2 303 c-1 167 0 304 3 304 3 0 5 28 6 63 1 34 3 73 7 87
15 72 21 91 44 155 14 39 45 99 69 135 42 64 133 160 152 160 6 0 12 4 14 9 5
13 103 60 169 81 32 11 89 22 126 26 37 4 376 8 753 9 377 1 701 5 720 9 19 4
53 12 75 18 22 5 45 11 50 13 15 3 46 15 95 38 168 77 286 222 329 407 18 78
19 128 20 732 1 455 -2 663 -10 696 -32 131 -143 275 -271 350 -100 59 -265
123 -353 137 -11 2 -21 4 -22 5 -4 3 -12 5 -63 14 -25 5 -52 10 -61 11 -22 4
-115 16 -169 22 -58 6 -558 11 -564 6z m-341 -401 c5 -3 16 -7 24 -9 19 -2 91
-82 103 -113 28 -71 11 -176 -36 -229 -47 -53 -97 -76 -166 -75 -134 0 -223
88 -223 220 -1 131 108 231 238 218 27 -3 54 -8 60 -12z"/>
<path d="M3962 3815 c-4 -5 -7 -156 -8 -335 -1 -294 -5 -395 -19 -440 -2 -8
-6 -26 -9 -40 -7 -44 -58 -163 -92 -217 -94 -149 -269 -258 -449 -281 -22 -2
-339 -6 -705 -7 -797 -4 -829 -6 -955 -60 -16 -7 -49 -21 -72 -31 -24 -10 -43
-21 -43 -26 0 -4 -6 -8 -14 -8 -19 0 -156 -130 -156 -147 0 -7 -4 -13 -8 -13
-11 0 -58 -96 -77 -160 -9 -30 -19 -82 -22 -115 -9 -83 -8 -1300 0 -1350 9
-50 55 -147 95 -202 75 -101 300 -239 437 -268 6 -1 30 -7 55 -14 68 -20 159
-37 235 -46 22 -3 60 -8 85 -11 99 -13 494 -19 590 -9 19 2 64 6 100 9 36 4
76 8 90 11 14 2 45 7 70 10 25 4 72 13 105 21 33 8 71 17 84 20 13 3 32 9 43
15 10 5 18 7 18 3 0 -3 7 -1 15 6 8 7 15 10 15 6 0 -9 108 41 180 84 87 51
163 128 203 203 l32 62 3 343 c3 324 2 342 -15 343 -10 0 -289 0 -620 0 l-602
1 2 86 2 87 915 1 c503 1 929 5 945 8 17 4 41 9 55 11 70 10 219 85 276 137
111 102 155 160 216 283 34 68 83 204 92 255 3 14 5 25 7 25 1 0 3 9 5 20 1
11 7 47 13 80 23 129 24 157 25 385 1 213 -5 341 -19 410 -2 13 -7 42 -11 64
-3 22 -7 44 -10 47 -2 4 -6 24 -10 45 -6 39 -38 150 -54 189 -37 90 -75 163
-110 217 -42 62 -183 208 -202 208 -6 0 -22 8 -36 18 -37 25 -128 59 -182 68
-72 12 -501 11 -508 -1z m-626 -2965 c44 -17 84 -50 112 -94 22 -35 27 -52 27
-111 -1 -73 -13 -106 -57 -156 -73 -82 -213 -90 -302 -17 -99 81 -108 232 -19
321 65 67 157 88 239 57z"/>
</g>
</svg>
